#N canvas 0 23 956 979 10;
#X obj 104 52 hsl 128 15 1.27 127 0 0 empty empty empty -2 -8 0 10
-262144 -1 -1 0 0;
#X obj 100 112 pack 0 80 700;
#X obj 100 134 makenote;
#X obj 100 186 noteout;
#X obj 149 161 r channel;
#X floatatom 128 73 5 0 0 0 - - -, f 5;
#X obj 82 51 bng 15 250 50 0 empty empty empty 17 7 0 10 -262144 -1
-1;
#X obj 101 72 int;
#X obj 792 57 hsl 128 15 0 15 0 0 empty empty empty -2 -8 0 10 -262144
-1 -1 0 0;
#X floatatom 816 78 5 0 0 0 - - -, f 5;
#X obj 770 56 bng 15 250 50 0 empty empty empty 17 7 0 10 -262144 -1
-1;
#X obj 789 77 int;
#X obj 789 99 s channel;
#X obj 98 281 notein;
#X obj 98 303 pack 0 0 0;
#X msg 98 325 set \$1 \$2 \$3;
#X msg 98 347 56 0 2;
#X obj 186 326 print notein;
#X obj 367 51 hsl 128 15 1.27 127 0 0 empty empty empty -2 -8 0 10
-262144 -1 -1 2700 0;
#X obj 441 154 r channel;
#X floatatom 391 72 5 0 0 0 - - -, f 5;
#X obj 345 50 bng 15 250 50 0 empty empty empty 17 7 0 10 -262144 -1
-1;
#X obj 364 71 int;
#X obj 363 185 ctlout;
#X obj 406 103 hsl 128 15 1.27 127 0 0 empty empty empty -2 -8 0 10
-262144 -1 -1 5100 0;
#X floatatom 430 124 5 0 0 0 - - -, f 5;
#X obj 384 102 bng 15 250 50 0 empty empty empty 17 7 0 10 -262144
-1 -1;
#X obj 403 123 int;
#X connect 0 0 7 0;
#X connect 1 0 2 0;
#X connect 2 0 3 0;
#X connect 2 1 3 1;
#X connect 4 0 3 2;
#X connect 6 0 0 0;
#X connect 7 0 1 0;
#X connect 7 0 5 0;
#X connect 8 0 11 0;
#X connect 10 0 8 0;
#X connect 11 0 9 0;
#X connect 11 0 12 0;
#X connect 13 0 14 0;
#X connect 13 1 14 1;
#X connect 13 2 14 2;
#X connect 14 0 15 0;
#X connect 14 0 17 0;
#X connect 15 0 16 0;
#X connect 18 0 22 0;
#X connect 19 0 23 2;
#X connect 21 0 18 0;
#X connect 22 0 20 0;
#X connect 22 0 23 0;
#X connect 24 0 27 0;
#X connect 26 0 24 0;
#X connect 27 0 25 0;
#X connect 27 0 23 1;
